<?xml version="1.0" encoding="UTF-8" standalone="no"?>
<!-- Created with Inkscape (http://www.inkscape.org/) -->

<svg
   xmlns:dc="http://purl.org/dc/elements/1.1/"
   xmlns:cc="http://creativecommons.org/ns#"
   xmlns:rdf="http://www.w3.org/1999/02/22-rdf-syntax-ns#"
   xmlns:svg="http://www.w3.org/2000/svg"
   xmlns="http://www.w3.org/2000/svg"
   xmlns:xlink="http://www.w3.org/1999/xlink"
   xmlns:sodipodi="http://sodipodi.sourceforge.net/DTD/sodipodi-0.dtd"
   xmlns:inkscape="http://www.inkscape.org/namespaces/inkscape"
   width="800"
   height="480"
   viewBox="0 0 211.66667 127.00001"
   version="1.1"
   id="svg8"
   inkscape:version="0.92.3 (2405546, 2018-03-11)"
   sodipodi:docname="machine.inkscape.svg"
   inkscape:export-filename="/home/filipe/projects/mutantstandard/fruitmachine/resources/fruit-machine-foreground-40.png"
   inkscape:export-xdpi="96"
   inkscape:export-ydpi="96">
  <sodipodi:namedview
     id="base"
     pagecolor="#ffffff"
     bordercolor="#666666"
     borderopacity="1.0"
     inkscape:pageopacity="0.0"
     inkscape:pageshadow="2"
     inkscape:zoom="1"
     inkscape:cx="271.57906"
     inkscape:cy="288.51467"
     inkscape:document-units="px"
     inkscape:current-layer="layer1"
     showgrid="false"
     inkscape:window-width="2517"
     inkscape:window-height="1416"
     inkscape:window-x="43"
     inkscape:window-y="0"
     inkscape:window-maximized="1"
     units="px"
     showguides="true"
     inkscape:guide-bbox="true"
     inkscape:lockguides="true"
     inkscape:snap-page="true"
     inkscape:measure-start="248.002,322.068"
     inkscape:measure-end="291.903,322.068"
     inkscape:snap-bbox="true"
     inkscape:snap-midpoints="false"
     inkscape:snap-center="false"
     inkscape:snap-object-midpoints="true"
     inkscape:snap-nodes="true"
     inkscape:snap-grids="false"
     inkscape:bbox-nodes="true"
     inkscape:snap-others="true"
     inkscape:bbox-paths="true"
     inkscape:snap-text-baseline="true"
     inkscape:snap-to-guides="true"
     fit-margin-top="0"
     fit-margin-left="0"
     fit-margin-bottom="0"
     fit-margin-right="0"
     inkscape:snap-bbox-edge-midpoints="true">
    <inkscape:grid
       type="xygrid"
       id="grid839"
       originx="4.2333392"
       originy="17.991665" />
    <sodipodi:guide
       position="37.041668,0"
       orientation="1,0"
       id="guide6754"
       inkscape:locked="true"
       inkscape:label="Reel H0mid"
       inkscape:color="rgb(255,0,0)" />
    <sodipodi:guide
       position="105.83334,0"
       orientation="1,0"
       id="guide6756"
       inkscape:locked="true"
       inkscape:label="Reel H1mid"
       inkscape:color="rgb(255,0,0)" />
    <sodipodi:guide
       position="174.62501,0"
       orientation="1,0"
       id="guide6758"
       inkscape:locked="true"
       inkscape:label="Reel H2mid"
       inkscape:color="rgb(255,0,0)" />
    <sodipodi:guide
       position="0,289.45417"
       orientation="0,1"
       id="guide4517"
       inkscape:locked="true"
       inkscape:label=""
       inkscape:color="rgb(0,0,255)" />
    <sodipodi:guide
       position="0,63.500003"
       orientation="0,1"
       id="guide8104"
       inkscape:locked="true"
       inkscape:label="Reel Vmid"
       inkscape:color="rgb(255,0,0)" />
    <sodipodi:guide
       position="0,135.46667"
       orientation="0,1"
       id="guide8145"
       inkscape:locked="true"
       inkscape:label="SYMB: Reel V0"
       inkscape:color="rgb(255,0,255)" />
    <sodipodi:guide
       position="15.875001,0"
       orientation="1,0"
       id="guide8147"
       inkscape:locked="true"
       inkscape:label="SYMB: Reel H0"
       inkscape:color="rgb(255,0,255)" />
    <sodipodi:guide
       position="0,84.666671"
       orientation="0,1"
       id="guide8149"
       inkscape:locked="true"
       inkscape:label="SYMB: Reel V1"
       inkscape:color="rgb(255,0,255)" />
    <sodipodi:guide
       position="0,33.866668"
       orientation="0,1"
       id="guide8151"
       inkscape:locked="true"
       inkscape:label="SYMB: Reel V2"
       inkscape:color="rgb(255,0,255)" />
    <sodipodi:guide
       position="84.666671,0"
       orientation="1,0"
       id="guide8153"
       inkscape:locked="true"
       inkscape:label="SYMB: Reel H1"
       inkscape:color="rgb(255,0,255)" />
    <sodipodi:guide
       position="153.45834,0"
       orientation="1,0"
       id="guide8155"
       inkscape:locked="true"
       inkscape:label="SYMB: Reel H2"
       inkscape:color="rgb(255,0,255)" />
  </sodipodi:namedview>
  <defs
     id="defs2" />
  <metadata
     id="metadata5">
    <rdf:RDF>
      <cc:Work
         rdf:about="">
        <dc:format>image/svg+xml</dc:format>
        <dc:type
           rdf:resource="http://purl.org/dc/dcmitype/StillImage" />
        <dc:title></dc:title>
      </cc:Work>
    </rdf:RDF>
  </metadata>
  <g
     id="layer1"
     inkscape:groupmode="layer"
     inkscape:label="BG"
     transform="translate(6.3652815e-6,-96.445843)"
     style="display:inline">
    <path
       style="opacity:1;fill:#ffe6d5;fill-opacity:1;stroke:none;stroke-width:0.94488186;stroke-linecap:butt;stroke-linejoin:round;stroke-miterlimit:4;stroke-dasharray:none;stroke-dashoffset:0;stroke-opacity:1"
       d="M 0,-0.00195313 V 479.99805 H 800 V -0.00195313 Z"
       transform="matrix(0.26458335,0,0,0.26458335,-6.3652815e-6,96.445843)"
       id="rect843"
       inkscape:connector-curvature="0" />
  </g>
  <g
     inkscape:groupmode="layer"
     id="layer4"
     inkscape:label="FG: Reels"
     style="display:inline"
     transform="translate(6.3652815e-6,-11.112495)">
    <g
       transform="translate(0,-85.333349)"
       id="g930">
      <path
         inkscape:connector-curvature="0"
         id="rect825"
         d="m 10.583984,104.91211 a 2.1168785,2.1168785 0 0 0 -2.1171871,2.11719 v 105.83398 a 2.1168785,2.1168785 0 0 0 2.1171871,2.11524 H 63.5 a 2.1168785,2.1168785 0 0 0 2.117188,-2.11524 V 107.0293 A 2.1168785,2.1168785 0 0 0 63.5,104.91211 Z m 2.115235,4.23437 H 61.382812 V 210.74609 H 12.699219 Z"
         style="color:#000000;font-style:normal;font-variant:normal;font-weight:normal;font-stretch:normal;font-size:medium;line-height:normal;font-family:sans-serif;font-variant-ligatures:normal;font-variant-position:normal;font-variant-caps:normal;font-variant-numeric:normal;font-variant-alternates:normal;font-feature-settings:normal;text-indent:0;text-align:start;text-decoration:none;text-decoration-line:none;text-decoration-style:solid;text-decoration-color:#000000;letter-spacing:normal;word-spacing:normal;text-transform:none;writing-mode:lr-tb;direction:ltr;text-orientation:mixed;dominant-baseline:auto;baseline-shift:baseline;text-anchor:start;white-space:normal;shape-padding:0;clip-rule:nonzero;display:inline;overflow:visible;visibility:visible;opacity:1;isolation:auto;mix-blend-mode:normal;color-interpolation:sRGB;color-interpolation-filters:linearRGB;solid-color:#000000;solid-opacity:1;vector-effect:none;fill:#000000;fill-opacity:1;fill-rule:nonzero;stroke:none;stroke-width:4.23333359;stroke-linecap:butt;stroke-linejoin:round;stroke-miterlimit:4;stroke-dasharray:none;stroke-dashoffset:0;stroke-opacity:1;color-rendering:auto;image-rendering:auto;shape-rendering:auto;text-rendering:auto;enable-background:accumulate" />
      <use
         height="100%"
         width="100%"
         transform="translate(68.791667)"
         id="use873"
         xlink:href="#rect825"
         y="0"
         x="0" />
      <use
         height="100%"
         width="100%"
         transform="translate(137.58334)"
         id="use875"
         xlink:href="#rect825"
         y="0"
         x="0" />
    </g>
    <g
       id="g8130">
      <rect
         y="23.813131"
         x="12.699213"
         height="16.403532"
         width="48.683598"
         id="rect8112"
         style="opacity:1;fill:#000000;fill-opacity:0.39047624;stroke:none;stroke-width:2.11666679;stroke-linecap:butt;stroke-linejoin:round;stroke-miterlimit:4;stroke-dasharray:none;stroke-dashoffset:0;stroke-opacity:1" />
      <use
         height="100%"
         width="100%"
         transform="translate(68.791023,-85.195202)"
         id="use8116"
         xlink:href="#use8114"
         y="0"
         x="0" />
      <use
         height="100%"
         width="100%"
         transform="translate(68.791677,-85.195202)"
         id="use8120"
         xlink:href="#use8118"
         y="0"
         x="0" />
      <use
         height="100%"
         width="100%"
         transform="translate(6.4999108e-4,85.195202)"
         id="use8114"
         xlink:href="#rect8112"
         y="0"
         x="0" />
      <use
         height="100%"
         width="100%"
         transform="translate(-3.8176715e-6,85.195202)"
         id="use8118"
         xlink:href="#use8116"
         y="0"
         x="0" />
      <use
         height="100%"
         width="100%"
         transform="translate(-8.3333587e-7,85.195202)"
         id="use8122"
         xlink:href="#use8120"
         y="0"
         x="0" />
    </g>
    <g
       id="g8135">
      <rect
         y="23.812815"
         x="12.69987"
         height="50.79937"
         width="48.683594"
         id="rect7976"
         style="display:inline;opacity:1;fill:#ffffff;fill-opacity:0.11764706;stroke:none;stroke-width:2.11666679;stroke-linecap:butt;stroke-linejoin:round;stroke-miterlimit:4;stroke-dasharray:none;stroke-dashoffset:0;stroke-opacity:1" />
      <use
         height="100%"
         width="100%"
         transform="translate(68.791673,1.3351461e-6)"
         id="use7978"
         xlink:href="#rect7976"
         y="0"
         x="0"
         style="display:inline" />
      <use
         height="100%"
         width="100%"
         transform="translate(68.79166)"
         id="use7980"
         xlink:href="#use7978"
         y="0"
         x="0"
         style="display:inline" />
    </g>
  </g>
  <g
     inkscape:groupmode="layer"
     id="layer6"
     inkscape:label="FG: Machine"
     style="display:inline"
     transform="translate(6.3652815e-6,-11.112495)">
    <path
       style="display:inline;opacity:1;fill:#ff9955;fill-opacity:1;stroke:none;stroke-width:0.94488186;stroke-linecap:butt;stroke-linejoin:round;stroke-miterlimit:4;stroke-dasharray:none;stroke-dashoffset:0;stroke-opacity:1"
       d="M 0.00195313,-0.00195313 V 479.99805 H 800 V -0.00195313 Z M 40.001953,31.998047 H 240 A 8.0008003,8.0008003 0 0 1 248.00195,40 V 440.00195 A 8.0008003,8.0008003 0 0 1 240,447.99805 H 40.001953 A 8.0008003,8.0008003 0 0 1 32,440.00195 V 40 a 8.0008003,8.0008003 0 0 1 8.001953,-8.001953 z m 259.999997,0 H 500 A 8.0008003,8.0008003 0 0 1 508.00195,40 V 440.00195 A 8.0008003,8.0008003 0 0 1 500,447.99805 H 300.00195 A 8.0008003,8.0008003 0 0 1 292,440.00195 V 40 a 8.0008003,8.0008003 0 0 1 8.00195,-8.001953 z m 260,0 H 760 A 8.0008003,8.0008003 0 0 1 768.00195,40 V 440.00195 A 8.0008003,8.0008003 0 0 1 760,447.99805 H 560.00195 A 8.0008003,8.0008003 0 0 1 552,440.00195 V 40 a 8.0008003,8.0008003 0 0 1 8.00195,-8.001953 z"
       transform="matrix(0.26458335,0,0,0.26458335,-6.3652815e-6,11.112495)"
       id="rect843-7"
       inkscape:connector-curvature="0" />
    <path
       style="opacity:1;fill:#000000;fill-opacity:0.39215686;stroke:none;stroke-width:15.98171711;stroke-linecap:butt;stroke-linejoin:round;stroke-miterlimit:4;stroke-dasharray:none;stroke-dashoffset:0;stroke-opacity:0"
       d="M 0,0 V 240 H 32 V 40.955078 a 8.0008003,7.9625824 0 0 1 8.001953,-7.96289 H 240 a 8.0008003,7.9625824 0 0 1 8.00195,7.96289 V 240 H 292 V 40.955078 a 8.0008003,7.9625824 0 0 1 8.00195,-7.96289 H 500 a 8.0008003,7.9625824 0 0 1 8.00195,7.96289 V 240 H 552 V 40.955078 a 8.0008003,7.9625824 0 0 1 8.00195,-7.96289 H 760 a 8.0008003,7.9625824 0 0 1 8.00195,7.96289 V 240 H 800 V 0 Z"
       transform="matrix(0.26458335,0,0,0.26458335,-6.3652815e-6,11.112495)"
       id="rect13144"
       inkscape:connector-curvature="0" />
  </g>
</svg>
